<?xml version="1.0" encoding="UTF-8"?>
<svg version="1.1" xmlns="http://www.w3.org/2000/svg" width="16" height="16">
<path d="M0 0 C5.28 0 10.56 0 16 0 C16 5.28 16 10.56 16 16 C10.72 16 5.44 16 0 16 C0 10.72 0 5.44 0 0 Z " fill="#141416" transform="translate(0,0)"/>
<path d="M0 0 C1.65 0.33 3.3 0.66 5 1 C5.33 3.31 5.66 5.62 6 8 C6.66 8 7.32 8 8 8 C8 8.66 8 9.32 8 10 C6.68 10 5.36 10 4 10 C4 9.34 4 8.68 4 8 C3.34 8 2.68 8 2 8 C2 8.66 2 9.32 2 10 C1.01 10 0.02 10 -1 10 C-0.84402344 9.44570312 -0.68804688 8.89140625 -0.52734375 8.3203125 C-0.33269531 7.59585937 -0.13804687 6.87140625 0.0625 6.125 C0.25972656 5.40570312 0.45695313 4.68640625 0.66015625 3.9453125 C1.21132607 1.92726407 1.21132607 1.92726407 0 0 Z " fill="#959596" transform="translate(5,3)"/>
</svg>
